<svg width="200" height="200" viewBox="0 0 200 200" fill="none" xmlns="http://www.w3.org/2000/svg">
<g clip-path="url(#clip0_3_14612)">
<path d="M0.938965 100.272C0.938965 45.4127 45.4113 0.94043 100.271 0.94043V0.94043C155.13 0.94043 199.602 45.4127 199.602 100.272V100.272C199.602 155.132 155.13 199.604 100.271 199.604V199.604C45.4113 199.604 0.938965 155.132 0.938965 100.272V100.272Z" fill="#FBFCFF"/>
<g clip-path="url(#clip1_3_14612)">
<path d="M487.49 -69.4199H-162.13V417.796H487.49V-69.4199Z" fill="#FBFCFF"/>
<path d="M93.4097 87.1172C100.036 93.6351 110.473 90.257 101.4 81.2923C96.3113 76.2685 85.9174 79.7548 93.4097 87.1172Z" fill="#EBF2FF"/>
<path d="M133.23 86.9221C136.695 88.4379 139.943 79.0401 135.612 78.2605C130.87 77.3944 128.379 84.8 133.23 86.9221Z" fill="#EBF2FF"/>
<path d="M119.135 106.498C119.871 106.476 120.477 106.411 120.802 106.324C123.509 105.545 124.57 102.383 120.954 102.232C119.33 102.167 115.324 102.253 114.544 104.202C113.786 106.108 116.948 106.541 119.135 106.498Z" fill="#EBF2FF"/>
<path d="M99.1045 157.643C112.032 161.801 130.676 155.37 136.869 142.724C142.413 131.399 134.422 135.859 128.446 138.783C121.473 142.204 113.829 144.478 106.034 144.651C98.195 144.824 90.3346 142.832 83.8817 138.263C81.0883 136.271 77.2339 129.45 73.661 133.478C68.1392 139.757 93.0197 155.673 99.1045 157.643Z" fill="#EBF2FF"/>
<path d="M1.27112 194.044C17.9231 197.336 33.9037 189.346 44.7091 176.938C48.7801 172.261 68.7667 144.197 59.7803 139.087C58.2645 138.22 35.5711 148.636 21.0629 160.113C17.7715 162.711 -5.18178 192.767 1.27112 194.044Z" fill="#EBF2FF"/>
<path d="M199.535 293.003C175.78 280.206 184.68 252.835 185.568 231.051C185.828 224.62 185.654 203.55 177.534 200.887C169.197 198.137 175.434 220.7 175.542 224.598C175.932 237.244 173.723 249.803 172.099 262.276C170.843 271.999 167.119 286.572 172.597 295.623C176.993 302.877 193.125 310.088 201.549 310.759C216.75 312.015 206.659 296.858 199.535 293.003Z" fill="#EBF2FF"/>
<path d="M182.776 158.229C178.965 153.66 161.1 134.778 154.192 137.961C152.092 137.571 151.681 139.26 152.222 141.924C152.438 148.312 159.909 159.745 162.248 162.712C169.242 171.59 179.203 183.348 190.246 180.728C200.575 178.302 184.27 160.026 182.776 158.229Z" fill="#EBF2FF"/>
<path d="M90.3538 57.6905C105.512 52.9266 152.284 56.8244 139.833 30.7746C137.949 26.8119 126.17 16.6128 123.246 20.1208C123.441 19.9042 123.939 24.4083 123.766 25.0146C122.034 30.558 118.266 32.247 112.614 33.2864C102.004 35.2569 90.029 32.1821 80.8261 39.3063C75.8673 43.139 65.7982 60.8087 69.9991 68.0628C72.0562 71.6141 76.5819 67.738 78.9855 69.2754C82.147 71.3109 80.3064 73.8444 82.017 75.5767C84.1175 77.7205 84.4423 79.4961 86.1746 75.057C89.9857 65.2694 86.088 59.0331 90.3538 57.6905Z" fill="#CFF1FF"/>
<path d="M81.0016 70.6606C77.9484 68.7334 73.7475 68.8849 70.8242 71.007C67.9226 73.1291 66.4934 77.0918 67.4029 80.5781C68.0308 83.0034 69.6549 85.0821 71.647 86.5979C73.8341 88.2436 76.4975 89.2614 79.2259 89.4779" stroke="#003188" stroke-width="1.73232" stroke-miterlimit="10" stroke-linecap="round" stroke-linejoin="round"/>
<path d="M73.249 76.7441C74.6782 77.5453 76.129 78.3465 77.5582 79.1477" stroke="#003188" stroke-width="1.73232" stroke-miterlimit="10" stroke-linecap="round" stroke-linejoin="round"/>
<path d="M107.268 75.4021C107.138 76.7879 107.225 78.1955 107.528 79.5597C108.156 78.1955 108.134 76.5281 107.463 75.1855" stroke="#003188" stroke-width="1.73232" stroke-miterlimit="10" stroke-linecap="round" stroke-linejoin="round"/>
<path d="M100.491 68.2137C103.955 66.5247 107.81 65.6369 111.664 65.6152" stroke="#003188" stroke-width="1.73232" stroke-miterlimit="10" stroke-linecap="round" stroke-linejoin="round"/>
<path d="M130.805 63.0824C127.795 62.9958 124.763 63.8186 122.23 65.421C121.862 65.6375 121.515 65.8974 121.299 66.2655C121.039 66.7202 121.017 67.2616 120.996 67.7813C120.952 69.5136 120.909 71.2676 121.255 72.9566C121.927 76.4429 124.114 79.4745 125.067 82.8958C125.218 83.4588 125.348 84.0868 125.132 84.6281C124.958 85.1045 124.547 85.451 124.157 85.7758C122.88 86.8801 121.58 88.0061 120.303 89.1105" stroke="#003188" stroke-width="1.73232" stroke-miterlimit="10" stroke-linecap="round" stroke-linejoin="round"/>
<path d="M127.753 74.0172C127.667 75.2299 127.71 76.4641 127.926 77.6551C128.316 76.3342 128.316 74.8834 127.905 73.5625" stroke="#003188" stroke-width="1.73232" stroke-miterlimit="10" stroke-linecap="round" stroke-linejoin="round"/>
<path d="M112.399 95.1299C115.907 96.2126 119.718 96.4075 123.313 95.6496" stroke="#003188" stroke-width="1.73232" stroke-miterlimit="10" stroke-linecap="round" stroke-linejoin="round"/>
<path d="M135.657 52.5361C136.09 63.1683 136.545 73.8004 136.978 84.4325C137.194 89.7161 137.411 95.0863 136.285 100.262C135.159 105.437 132.539 110.504 128.143 113.471C123.401 116.675 117.164 117.022 111.621 115.593C106.077 114.163 101.075 111.154 96.3115 107.992" stroke="#003188" stroke-width="1.73232" stroke-miterlimit="10" stroke-linecap="round" stroke-linejoin="round"/>
<path d="M131.304 111.521C130.914 118.991 131.217 126.505 132.235 133.911" stroke="#003188" stroke-width="1.73232" stroke-miterlimit="10" stroke-linecap="round" stroke-linejoin="round"/>
<path d="M78.5757 91.9463C79.8966 105.177 80.4163 118.494 80.1348 131.79" stroke="#003188" stroke-width="1.73232" stroke-miterlimit="10" stroke-linecap="round" stroke-linejoin="round"/>
<path d="M97.437 109.42C100.122 113.816 103.37 118.017 107.766 120.723C112.14 123.43 117.835 124.426 122.512 122.261C124.05 121.546 125.436 120.528 126.8 119.489C127.991 118.601 129.182 117.648 129.961 116.393C130.741 115.137 131.022 113.448 130.286 112.17C126.194 116.328 119.914 117.887 114.132 117.085C108.351 116.306 103.024 113.448 98.3898 109.875" fill="#003188"/>
<path d="M97.437 109.42C100.122 113.816 103.37 118.017 107.766 120.723C112.14 123.43 117.835 124.426 122.512 122.261C124.05 121.546 125.436 120.528 126.8 119.489C127.991 118.601 129.182 117.648 129.961 116.393C130.741 115.137 131.022 113.448 130.286 112.17C126.194 116.328 119.914 117.887 114.132 117.085C108.351 116.306 103.024 113.448 98.3898 109.875" stroke="#003188" stroke-width="1.73232" stroke-miterlimit="10" stroke-linecap="round" stroke-linejoin="round"/>
<path d="M77.147 131.964C65.0207 137.594 51.7035 141.362 39.1442 147.836C21.9942 156.693 8.85019 172.045 -0.266157 189.066C-9.3825 206.086 -14.8177 224.795 -19.6032 243.504C-26.9656 272.152 -32.9854 301.125 -39.0269 330.077" stroke="#003188" stroke-width="1.73232" stroke-miterlimit="10" stroke-linecap="round" stroke-linejoin="round"/>
<path d="M80.1562 135.037C87.9734 139.758 96.6783 143.309 105.795 144.088C114.911 144.868 124.46 142.681 131.606 137.008" stroke="#003188" stroke-width="1.73232" stroke-miterlimit="10" stroke-linecap="round" stroke-linejoin="round"/>
<path d="M88.1479 144.003C96.9395 151.192 109.477 153.552 120.261 150.023" stroke="#003188" stroke-width="1.73232" stroke-miterlimit="10" stroke-linecap="round" stroke-linejoin="round"/>
<path d="M135.872 134.172C157.764 135.536 177.426 149.655 189.791 167.757C202.133 185.882 208.023 207.622 211.488 229.276" stroke="#003188" stroke-width="1.73232" stroke-miterlimit="10" stroke-linecap="round" stroke-linejoin="round"/>
<path d="M193.189 264.051C210.145 237.72 227.1 211.41 244.076 185.079" stroke="#003188" stroke-width="1.73232" stroke-miterlimit="10" stroke-linecap="round" stroke-linejoin="round"/>
<path d="M36.35 153.508C33.4267 155.262 30.7849 157.514 28.5762 160.112" stroke="#003188" stroke-width="1.73232" stroke-miterlimit="10" stroke-linecap="round" stroke-linejoin="round"/>
<path d="M21.106 130.771C20.8028 131.161 21.1276 131.854 21.6256 131.876C22.1237 131.919 22.5135 131.291 22.2753 130.858" stroke="#003188" stroke-width="1.73232" stroke-miterlimit="10" stroke-linecap="round" stroke-linejoin="round"/>
<path d="M148.627 124.298C148.28 124.514 148.454 125.186 148.865 125.186C149.276 125.186 149.45 124.514 149.103 124.298" stroke="#003188" stroke-width="1.73232" stroke-miterlimit="10" stroke-linecap="round" stroke-linejoin="round"/>
<path d="M173.723 194.695C173.55 195.323 173.701 196.016 174.134 196.514" stroke="#003188" stroke-width="1.73232" stroke-miterlimit="10" stroke-linecap="round" stroke-linejoin="round"/>
<path d="M124.029 149.091C124.484 148.788 124.939 148.485 125.394 148.182" stroke="#003188" stroke-width="1.73232" stroke-miterlimit="10" stroke-linecap="round" stroke-linejoin="round"/>
<path d="M82.3664 73.5383C82.3447 75.184 82.6263 76.8081 83.1676 78.3672C83.2326 78.5404 83.3192 78.757 83.4924 78.8003C83.7306 78.8869 83.9688 78.6703 84.142 78.4538C85.7877 76.2884 86.2208 73.4301 86.4374 70.7233C86.7838 66.6307 86.7838 62.5164 86.4807 58.4238" stroke="#24BDFF" stroke-width="1.73232" stroke-miterlimit="10" stroke-linecap="round" stroke-linejoin="round"/>
<path d="M69.1779 68.5595C68.0952 61.1754 68.7882 53.4449 71.8414 46.6456C74.8946 39.8462 80.4164 34.0213 87.3457 31.2712C92.0229 29.409 97.1549 28.9759 102.179 29.0842C109.173 29.2357 116.903 30.1885 122.469 25.9443" stroke="#24BDFF" stroke-width="1.73232" stroke-miterlimit="10" stroke-linecap="round" stroke-linejoin="round"/>
<path d="M90.291 57.7533C99.8404 54.2454 110.299 54.7218 120.39 53.4442C124.872 52.8812 129.377 51.9284 133.274 49.6331C137.172 47.3594 140.377 43.5483 141.005 39.0876C141.698 34.2587 139.272 29.4082 135.808 25.9652C132.343 22.5223 127.904 20.2702 123.573 18.0615" stroke="#24BDFF" stroke-width="1.73232" stroke-miterlimit="10" stroke-linecap="round" stroke-linejoin="round"/>
<path d="M123.055 18.2129C124.03 19.3606 124.398 20.9846 124.03 22.4354" stroke="#24BDFF" stroke-width="1.73232" stroke-miterlimit="10" stroke-linecap="round" stroke-linejoin="round"/>
<path d="M116.514 33.1982C115.994 36.0349 114.067 38.4169 111.88 40.3008C104.691 46.4938 94.7949 48.1612 85.6353 50.6514" stroke="#24BDFF" stroke-width="1.73232" stroke-miterlimit="10" stroke-linecap="round" stroke-linejoin="round"/>
<path d="M124.136 31.4219C124.395 32.8294 123.616 34.1936 122.793 35.3629C119.004 40.7331 113.568 44.9123 107.397 47.186" stroke="#24BDFF" stroke-width="1.73232" stroke-miterlimit="10" stroke-linecap="round" stroke-linejoin="round"/>
<path d="M129.376 34.5176C128.077 37.3326 125.976 39.7795 123.399 41.5118" stroke="#24BDFF" stroke-width="1.73232" stroke-miterlimit="10" stroke-linecap="round" stroke-linejoin="round"/>
<path d="M80.7622 58.3594C81.6067 60.3732 81.8016 62.6469 81.2819 64.769" stroke="#24BDFF" stroke-width="1.73232" stroke-miterlimit="10" stroke-linecap="round" stroke-linejoin="round"/>
<path d="M198.538 107.557C208.001 108.64 217.659 108.12 226.97 105.998C236.519 103.833 246.155 99.6321 251.915 91.7067C252.933 90.2992 253.864 88.6102 253.539 86.8995C252.998 84.0195 249.425 82.9152 246.48 82.9368C244.336 82.9585 242.128 83.2833 240.33 84.431C238.533 85.5786 237.234 87.7224 237.58 89.8445C238.1 92.941 241.651 94.5434 244.791 94.8249C252.868 95.5611 260.62 91.252 266.748 85.9251" stroke="#24BDFF" stroke-width="1.73232" stroke-miterlimit="10" stroke-linecap="round" stroke-linejoin="round"/>
<path d="M219.609 110.524C209.669 114.314 198.972 116.089 188.362 115.678" stroke="#24BDFF" stroke-width="1.73232" stroke-miterlimit="10" stroke-linecap="round" stroke-linejoin="round"/>
</g>
</g>
<path d="M100.271 198.279C46.1427 198.279 2.26339 154.4 2.26339 100.272H-0.385458C-0.385458 155.863 44.6798 200.928 100.271 200.928V198.279ZM198.278 100.272C198.278 154.4 154.399 198.279 100.271 198.279V200.928C155.862 200.928 200.927 155.863 200.927 100.272H198.278ZM100.271 2.26485C154.399 2.26485 198.278 46.1442 198.278 100.272H200.927C200.927 44.6813 155.862 -0.383993 100.271 -0.383993V2.26485ZM100.271 -0.383993C44.6798 -0.383993 -0.385458 44.6813 -0.385458 100.272H2.26339C2.26339 46.1442 46.1427 2.26485 100.271 2.26485V-0.383993Z" fill="#003188" fill-opacity="0.1"/>
<defs>
<clipPath id="clip0_3_14612">
<path d="M0.938965 100.272C0.938965 45.4127 45.4113 0.94043 100.271 0.94043V0.94043C155.13 0.94043 199.602 45.4127 199.602 100.272V100.272C199.602 155.132 155.13 199.604 100.271 199.604V199.604C45.4113 199.604 0.938965 155.132 0.938965 100.272V100.272Z" fill="white"/>
</clipPath>
<clipPath id="clip1_3_14612">
<rect width="649.621" height="487.215" fill="white" transform="translate(-162.13 -69.4199)"/>
</clipPath>
</defs>
</svg>
