<svg width="200" height="199" viewBox="0 0 200 199" fill="none" xmlns="http://www.w3.org/2000/svg">
<g clip-path="url(#clip0_3_17723)">
<path d="M0.649902 0.336914H199.313V199H0.649902V0.336914Z" fill="#FBFCFF"/>
<path d="M85.3181 67.7385C84.4519 75.5123 83.5641 83.2861 82.7196 91.0599C82.0266 97.3829 81.4636 103.922 82.9145 110.18C84.2354 115.94 87.4835 121.007 92.5721 124.126C97.1845 126.941 102.858 128.023 108.185 126.962C115.287 125.533 120.657 120.141 125.097 114.771C125.898 113.818 124.512 112.432 123.711 113.385C119.878 118.019 115.439 122.74 109.549 124.58C104.633 126.118 99.1333 125.447 94.586 123.021C89.5406 120.315 86.2925 115.659 84.9066 110.159C83.4341 104.269 83.9105 98.0758 84.5385 92.0993C85.4047 83.9791 86.3574 75.8588 87.2453 67.7385C87.4185 66.4826 85.4696 66.5043 85.3181 67.7385Z" fill="#003188"/>
<path d="M91.1404 74.214C92.6995 74.149 94.2586 74.1273 95.8393 74.214C96.6839 74.2573 97.55 74.3222 98.3945 74.4089C98.8493 74.4522 100.084 74.3872 100.452 74.712C100.928 75.1234 100.755 76.2928 100.755 76.8774C100.733 77.592 100.69 78.3066 100.56 78.9995C100.3 80.5153 99.7587 81.9444 99.0442 83.3087C97.8315 85.604 95.8827 87.7694 95.1464 90.2813C94.8433 91.3206 95.0165 92.3167 95.5579 93.2479C96.0992 94.179 97.0087 94.9152 97.4201 95.9113C97.8965 97.059 99.7804 96.5609 99.304 95.3916C98.8276 94.2656 98.0264 93.486 97.3768 92.49C96.5106 91.1474 97.3335 90.0214 98.0481 88.8088C99.5855 86.1886 101.383 83.6768 102.184 80.6885C102.574 79.1944 102.769 77.6353 102.704 76.0979C102.66 74.8636 102.509 73.5427 101.253 72.9797C99.9536 72.3734 98.113 72.4383 96.7055 72.3517C94.8649 72.2218 93.0027 72.2218 91.1621 72.3084C89.8845 72.3301 89.8845 74.2789 91.1404 74.214Z" fill="#003188"/>
<path d="M93.3937 79.3889C93.2638 80.6016 93.1122 81.8358 92.9823 83.0485C92.8524 84.2827 94.8012 84.2827 94.9312 83.0485C95.0611 81.8358 95.2127 80.6016 95.3426 79.3889C95.4942 78.133 93.5453 78.1546 93.3937 79.3889Z" fill="#003188"/>
<path d="M111.238 75.188C114.854 74.5601 118.578 75.0365 121.913 76.5956C123.039 77.1153 124.035 75.4479 122.888 74.9065C119.055 73.1309 114.876 72.5679 110.718 73.3042C109.484 73.5207 110.003 75.4046 111.238 75.188Z" fill="#003188"/>
<path d="M113.683 81.9009C113.597 83.0486 113.488 84.1746 113.402 85.3223C113.294 86.5782 115.242 86.5566 115.351 85.3223C115.437 84.1746 115.546 83.0486 115.632 81.9009C115.74 80.645 113.792 80.645 113.683 81.9009Z" fill="#003188"/>
<path d="M95.8409 103.793C98.4827 103.598 101.124 103.425 103.766 103.23C104.459 103.187 105.152 103.122 105.845 103.079C106.235 103.057 107.469 102.754 107.816 102.949C108.53 103.339 107.188 104.941 106.863 105.287C105.477 106.738 103.247 107.604 101.276 106.955C99.3056 106.305 97.5083 104.486 96.772 102.559C96.3173 101.411 94.4334 101.909 94.8881 103.079C95.9059 105.699 98.1795 108.059 100.908 108.882C103.571 109.683 106.668 108.492 108.444 106.435C109.245 105.504 109.981 104.313 109.938 103.035C109.873 101.628 108.812 100.978 107.512 101.022C103.636 101.13 99.717 101.585 95.8409 101.844C94.6066 101.953 94.6066 103.902 95.8409 103.793Z" fill="#003188"/>
<path d="M86.2693 42.534C80.9857 46.5616 78.3223 53.5775 79.8814 60.0954C80.6393 63.2136 82.5015 66.375 85.5114 67.7609C89.2142 69.4283 93.3069 68.0857 97.053 67.3062C105.65 65.5522 114.679 64.9675 123.254 67.068C126.481 67.8692 130.249 69.1684 131.158 72.7846C132.046 76.3359 130.379 80.1037 129.707 83.5467C129.339 85.3656 128.906 87.5094 129.404 89.3283C129.794 90.7575 130.963 92.4898 132.652 91.9268C134.016 91.4721 134.818 89.8264 135.489 88.657C136.702 86.5133 137.849 84.3262 139.127 82.2258C139.776 81.1647 138.109 80.1687 137.438 81.2514C136.398 82.9404 135.446 84.6944 134.493 86.4267C134.125 87.098 133.757 87.7692 133.367 88.4188C133.085 88.8952 132.717 89.6748 132.219 89.9563C131.05 90.6059 131.201 86.6865 131.266 86.0586C131.461 84.4345 131.829 82.8754 132.219 81.273C132.977 78.2415 133.865 74.8851 132.89 71.7886C131.959 68.8436 129.447 67.1113 126.676 66.0502C123.211 64.751 119.357 64.188 115.675 63.9281C111.734 63.625 107.772 63.7766 103.852 64.2313C99.9979 64.686 96.2518 65.5739 92.4407 66.2884C90.5785 66.6349 88.5646 66.8298 86.724 66.1585C85.1866 65.5955 83.974 64.4045 83.1295 63.0403C79.3833 56.9772 81.722 48.4022 87.2004 44.223C88.2398 43.4651 87.2654 41.7761 86.2693 42.534Z" fill="#003188"/>
<path d="M93.9364 36.2329C93.0052 35.54 91.706 35.8215 90.9264 36.6227C90.0386 37.5538 90.1252 38.918 90.8398 39.9357C91.6627 41.0618 93.0269 41.4948 94.3694 41.4948C96.1884 41.4948 98.0723 41.1051 99.8696 40.8885C107.275 39.9574 114.789 38.8964 122.26 39.3078C128.561 39.6542 134.429 41.733 139.107 46.0638C143.394 50.0265 146.231 55.3318 147.01 61.135C148.093 69.1687 145.581 77.2456 142.463 84.5647C141.987 85.7124 143.654 86.7084 144.152 85.5391C148.981 74.2141 152.077 60.7886 144.78 49.7667C141.857 45.3709 137.699 41.7763 132.849 39.6759C126.721 37.0125 119.856 37.0774 113.317 37.5105C109.311 37.792 105.326 38.2684 101.342 38.7664C99.3932 39.0046 97.4659 39.2861 95.5171 39.481C94.6076 39.5676 93.4816 39.7192 92.7237 39.0912C92.4639 38.8747 92.0957 38.4633 92.2473 38.0952C92.3773 37.7487 92.7237 37.727 92.9619 37.9003C93.958 38.6582 94.9324 36.9692 93.9364 36.2329Z" fill="#003188"/>
<path d="M88.3696 50.2855C86.6373 52.5808 87.9149 55.8505 90.1236 57.3014C93.0036 59.1853 97.0312 58.7738 100.258 58.5356C107.772 57.9943 115.892 56.2403 122.994 59.7266C124.12 60.268 125.095 58.6006 123.969 58.0376C117.841 55.0277 110.998 55.5474 104.415 56.197C101.059 56.5218 97.5509 57.0415 94.1945 56.6301C92.7221 56.4569 91.098 55.9805 90.1885 54.7245C89.4307 53.6635 89.2574 52.3426 90.0586 51.2599C90.7949 50.2855 89.1058 49.311 88.3696 50.2855Z" fill="#003188"/>
<path d="M127.26 60.8736C127.672 61.0902 128.105 61.285 128.516 61.5016C128.971 61.7181 129.599 61.6315 129.859 61.1551C130.097 60.722 129.989 60.0724 129.512 59.8126C129.101 59.596 128.668 59.4011 128.257 59.1846C127.802 58.9681 127.174 59.0547 126.914 59.5311C126.676 59.9858 126.784 60.6354 127.26 60.8736Z" fill="#003188"/>
<path d="M111.517 52.1483C113.531 51.9967 115.458 52.1916 117.363 52.7763C118.576 53.1444 119.074 51.2605 117.883 50.8924C115.804 50.2644 113.661 50.0262 111.517 50.1994C110.283 50.2861 110.261 52.2349 111.517 52.1483Z" fill="#003188"/>
<path d="M136.313 70.9652C136.183 71.6582 136.031 72.3727 135.901 73.0657C135.793 73.5854 136.053 74.1267 136.572 74.2566C137.049 74.3866 137.677 74.1051 137.763 73.5854C137.893 72.8924 138.045 72.1779 138.175 71.4849C138.283 70.9652 138.023 70.4239 137.504 70.294C137.027 70.1424 136.421 70.4455 136.313 70.9652Z" fill="#003188"/>
<path d="M136.313 87.8988C138.283 87.6606 140.709 87.4007 141.9 89.3713C143.091 91.3418 142.354 93.8969 141.293 95.7375C139.388 99.0506 135.793 101.216 131.982 101.303C130.726 101.346 130.726 103.295 131.982 103.251C136.876 103.122 141.553 100.112 143.545 95.586C144.606 93.1824 144.953 90.2374 143.35 87.9854C141.705 85.6684 138.911 85.6251 136.334 85.9283C135.079 86.1015 135.057 88.0504 136.313 87.8988Z" fill="#003188"/>
<path d="M137.438 91.0168C136.182 91.6447 135.034 92.4892 134.017 93.4637C133.107 94.3298 134.493 95.7157 135.403 94.8495C136.29 93.9834 137.308 93.2688 138.434 92.7058C139.538 92.1211 138.542 90.4538 137.438 91.0168Z" fill="#003188"/>
<path d="M133.432 104.767C130.942 117.457 129.794 130.406 130.033 143.333C130.054 144.589 132.003 144.589 131.982 143.333C131.743 130.579 132.848 117.803 135.295 105.287C135.554 104.053 133.671 103.533 133.432 104.767Z" fill="#003188"/>
<path d="M88.3925 120.423C87.8728 128.804 86.92 137.14 85.5558 145.434C85.3609 146.668 87.2231 147.188 87.4397 145.953C88.8472 137.487 89.8216 128.977 90.363 120.423C90.4063 119.167 88.4574 119.167 88.3925 120.423Z" fill="#003188"/>
<path d="M89.4525 130.927C95.9054 134.5 104.091 134.478 110.717 131.273C117.343 128.068 122.367 121.875 124.575 114.859C121.067 120.533 115.178 124.669 108.66 126.055C102.142 127.44 95.0826 126.076 89.5391 122.352C89.2576 125.058 88.9978 127.765 88.7163 130.472" fill="#003188"/>
<path d="M88.9768 131.769C94.4553 134.736 100.995 135.364 106.993 133.718C112.688 132.159 117.582 128.543 121.09 123.844C123.06 121.224 124.533 118.257 125.529 115.139C125.875 114.056 124.316 113.472 123.753 114.381C120.44 119.643 115.113 123.519 109.05 124.992C102.554 126.573 95.5813 125.208 90.0379 121.527C89.3666 121.072 88.6303 121.7 88.5654 122.372C88.2839 125.078 88.024 127.785 87.7425 130.492C87.6126 131.748 89.5615 131.726 89.6914 130.492C89.9729 127.785 90.2327 125.078 90.5142 122.372C90.0162 122.653 89.5398 122.935 89.0418 123.216C95.0183 127.179 102.576 128.565 109.548 126.876C116.088 125.273 121.826 121.051 125.399 115.377C124.814 115.118 124.208 114.879 123.623 114.62C121.566 121.094 117.127 126.789 111.107 130.016C104.611 133.48 96.4474 133.632 89.9512 130.124C88.8469 129.474 87.8725 131.163 88.9768 131.769Z" fill="#003188"/>
<path d="M86.2489 148.054C78.8865 144.871 71.221 141.991 63.4039 140.15C55.8683 138.396 48.3111 138.353 40.9703 140.951C34.0627 143.398 27.9346 147.513 22.2396 152.06C16.1548 156.91 10.5681 162.367 5.19788 168.019C-1.2117 174.753 -7.40475 181.683 -13.4246 188.764C-14.2258 189.716 -12.8616 191.102 -12.0387 190.149C-6.82009 184.021 -1.47156 178.023 4.02856 172.133C9.13891 166.655 14.4009 161.263 20.0959 156.369C25.596 151.649 31.5292 147.209 38.1553 144.2C45.1279 141.038 52.5336 140.085 60.0692 141.471C64.3783 142.251 68.5792 143.55 72.7368 144.957C76.981 146.387 81.1602 147.989 85.2745 149.765C86.4005 150.241 87.3966 148.552 86.2489 148.054Z" fill="#003188"/>
<path d="M87.9143 151.475C93.2628 156.001 100.43 157.235 107.251 157.213C115.047 157.192 122.756 155.481 129.858 152.276C131.006 151.756 130.01 150.089 128.884 150.587C122.214 153.575 114.96 155.178 107.641 155.264C101.253 155.329 94.3239 154.355 89.2785 150.089C88.3474 149.288 86.9615 150.652 87.9143 151.475Z" fill="#003188"/>
<path d="M89.1736 158.101C93.591 162.107 99.286 164.424 105.198 164.965C111.759 165.55 118.32 163.882 124.145 160.937C125.271 160.374 124.275 158.685 123.17 159.248C112.82 164.51 99.5458 164.9 90.5378 156.736C89.6283 155.892 88.2425 157.256 89.1736 158.101Z" fill="#003188"/>
<path d="M217.47 306.93C217.881 291.513 218.271 276.095 218.033 260.656C217.795 245.888 217.015 231.055 214.828 216.438C212.771 202.818 209.285 189.284 203.091 176.92C197.44 165.616 189.471 155.201 178.926 148.077C167.471 140.368 152.573 137.011 139.19 141.299C137.48 141.84 135.834 142.511 134.232 143.291C133.106 143.832 134.08 145.521 135.206 144.98C148.025 138.809 163.508 141.039 175.439 148.163C186.115 154.551 194.235 164.469 200.082 175.317C206.491 187.227 210.194 200.393 212.424 213.688C214.785 227.763 215.629 242.098 215.997 256.347C216.365 271.331 216.062 286.337 215.672 301.322C215.629 303.184 215.586 305.025 215.521 306.887C215.478 308.186 217.426 308.186 217.47 306.93Z" fill="#003188"/>
<path d="M28.6044 186.771C26.1792 202.319 27.067 218.061 28.9942 233.609C30.943 249.308 33.888 264.877 35.512 280.62C36.4215 289.476 36.8762 298.398 36.4865 307.298C36.4215 308.554 38.3704 308.554 38.4353 307.298C39.1066 291.62 37.1577 276.008 34.8624 260.547C32.5454 244.977 29.8603 229.43 29.2107 213.687C28.8426 204.874 29.1458 196.018 30.4883 187.313C30.6615 186.057 28.7993 185.515 28.6044 186.771Z" fill="#003188"/>
<path d="M-7.47099 178.326C1.99182 191.6 10.177 205.783 16.8898 220.659C18.817 224.947 20.6359 229.278 22.3033 233.652C22.758 234.821 24.6419 234.301 24.1872 233.132C18.2757 217.779 10.8916 202.99 2.1001 189.066C-0.411763 185.082 -3.05356 181.162 -5.78197 177.33C-6.5182 176.312 -8.20723 177.286 -7.47099 178.326Z" fill="#003188"/>
<path d="M4.59215 187.55C11.3482 195.129 16.2203 204.224 18.8621 214.011C19.1869 215.224 21.0709 214.704 20.746 213.492C18.0176 203.379 12.9506 194.003 5.97798 186.186C5.13348 185.233 3.74764 186.619 4.59215 187.55Z" fill="#003188"/>
<path d="M31.356 175.489C30.9229 175.619 30.5548 175.9 30.3599 176.312C30.2517 176.55 30.165 176.788 30.165 177.069C30.165 177.351 30.2517 177.567 30.3599 177.827C30.4465 178.044 30.728 178.217 30.9446 178.282C31.1828 178.347 31.4859 178.325 31.7025 178.174C31.919 178.044 32.0922 177.849 32.1572 177.589C32.2222 177.308 32.1789 177.091 32.0489 176.831C32.0489 176.853 32.1356 177.069 32.0923 176.939C32.1572 177.199 32.1139 177.134 32.1139 177.048C32.1356 176.939 32.0923 177.286 32.0923 177.178C32.1139 177.069 32.1789 177.113 32.0489 177.264L32.0923 177.178C32.0923 177.178 31.9407 177.373 32.0273 177.264C32.1355 177.156 31.854 177.373 31.9623 177.329C32.0489 177.286 31.7025 177.416 31.8757 177.373C32.3738 177.243 32.7202 176.68 32.547 176.182C32.3954 175.684 31.8757 175.359 31.356 175.489Z" fill="#003188"/>
<path d="M22.2813 161.652C23.494 160.591 24.7066 159.53 25.9192 158.469C26.872 157.646 25.4861 156.26 24.5334 157.083C23.3207 158.144 22.1081 159.205 20.8955 160.266C19.9643 161.111 21.3502 162.475 22.2813 161.652Z" fill="#003188"/>
<path d="M66.7397 126.291C66.7397 126.248 66.7181 126.205 66.7181 126.161C66.5665 126.53 66.4149 126.898 66.2633 127.266C66.2633 127.266 66.285 127.266 66.285 127.244C65.8952 127.201 65.5054 127.136 65.094 127.093C65.0507 127.028 65.0074 126.963 64.9641 126.876C65.1157 126.508 65.2672 126.14 65.4188 125.772C65.4188 125.772 65.3972 125.772 65.3972 125.793C65.7869 125.837 66.1767 125.902 66.5881 125.945C66.5665 125.923 66.5232 125.88 66.5015 125.858C65.6137 124.97 64.2279 126.356 65.1157 127.244C65.1373 127.266 65.1806 127.309 65.2023 127.331C65.5054 127.634 66.0035 127.699 66.3932 127.482C66.3932 127.482 66.4149 127.482 66.4149 127.461C66.7614 127.266 67.0212 126.746 66.8697 126.356C66.7614 126.096 66.6531 125.923 66.5015 125.707C66.2417 125.36 65.657 125.36 65.3105 125.555C65.3105 125.555 65.2889 125.555 65.2889 125.577C64.8991 125.793 64.7476 126.27 64.8342 126.681C64.8342 126.724 64.8558 126.768 64.8558 126.811C65.159 128.024 67.0429 127.504 66.7397 126.291Z" fill="#003188"/>
<path d="M149.434 35.3878C149.175 35.6476 148.915 35.9075 148.655 36.1673C148.287 36.5354 148.265 37.1851 148.655 37.5532C149.045 37.8996 149.651 37.943 150.041 37.5532C150.301 37.2933 150.56 37.0335 150.82 36.7736C151.188 36.4055 151.21 35.7559 150.82 35.3878C150.409 35.0197 149.824 34.998 149.434 35.3878Z" fill="#003188"/>
</g>
<path d="M0.649902 0.336914V-0.987508H-0.67452V0.336914H0.649902ZM199.313 0.336914H200.638V-0.987508H199.313V0.336914ZM199.313 199V200.325H200.638V199H199.313ZM0.649902 199H-0.67452V200.325H0.649902V199ZM0.649902 1.66134H199.313V-0.987508H0.649902V1.66134ZM197.989 0.336914V199H200.638V0.336914H197.989ZM199.313 197.676H0.649902V200.325H199.313V197.676ZM1.97432 199V0.336914H-0.67452V199H1.97432Z" fill="#003188" fill-opacity="0.1"/>
<defs>
<clipPath id="clip0_3_17723">
<path d="M0.649902 0.336914H199.313V199H0.649902V0.336914Z" fill="white"/>
</clipPath>
</defs>
</svg>
